HIERARCHY
ROOT Root
{
  OFFSET 0.0 0.0 0.0
  CHANNELS 6 Xposition Yposition Zposition Zrotation Yrotation Xrotation
  JOINT Hips
  {
    OFFSET 0.0 100.0 0.0
    CHANNELS 6 Xposition Yposition Zposition Zrotation Yrotation Xrotation
    JOINT Spine1
    {
      OFFSET 5.003913 -0.037094 -0.013727
      CHANNELS 3 Zrotation Yrotation Xrotation
      JOINT Spine2
      {
        OFFSET 7.125363 -1e-06 0.0
        CHANNELS 3 Zrotation Yrotation Xrotation
        JOINT Chest
        {
          OFFSET 7.594027 1e-06 0.0
          CHANNELS 3 Zrotation Yrotation Xrotation
          JOINT Neck1
          {
            OFFSET 26.313086 -0.460272 -0.181672
            CHANNELS 3 Zrotation Yrotation Xrotation
            JOINT Neck2
            {
              OFFSET 8.045911 0.0 0.0
              CHANNELS 3 Zrotation Yrotation Xrotation
              JOINT Head
              {
                OFFSET 6.432774 0.0 0.0
                CHANNELS 3 Zrotation Yrotation Xrotation
                JOINT HeadEnd
                {
                  OFFSET 16.169773 0.06451 0.00362
                  CHANNELS 3 Zrotation Yrotation Xrotation
                }
                JOINT Jaw
                {
                  OFFSET 0.108741 3.12938 0.002639
                  CHANNELS 3 Zrotation Yrotation Xrotation
                }
                JOINT LeftEye
                {
                  OFFSET 4.45173 8.166359 3.206392
                  CHANNELS 3 Zrotation Yrotation Xrotation
                }
                JOINT RightEye
                {
                  OFFSET 4.436895 8.135758 -3.222429
                  CHANNELS 3 Zrotation Yrotation Xrotation
                }
              }
            }
          }
          JOINT LeftShoulder
          {
            OFFSET 23.218927 5.195579 1.621656
            CHANNELS 3 Zrotation Yrotation Xrotation
            JOINT LeftArm
            {
              OFFSET 15.902118 2e-06 -2e-06
              CHANNELS 3 Zrotation Yrotation Xrotation
              JOINT LeftForeArm
              {
                OFFSET 28.739307 0.0 -1e-06
                CHANNELS 3 Zrotation Yrotation Xrotation
                JOINT LeftHand
                {
                  OFFSET 27.093981 -4e-06 0.0
                  CHANNELS 3 Zrotation Yrotation Xrotation
                  JOINT LeftHandThumb1
                  {
                    OFFSET 2.276781 3.380274 0.83384
                    CHANNELS 3 Zrotation Yrotation Xrotation
                    JOINT LeftHandThumb2
                    {
                      OFFSET 4.705309 -1e-06 -1e-06
                      CHANNELS 3 Zrotation Yrotation Xrotation
                      JOINT LeftHandThumb3
                      {
                        OFFSET 2.798515 0.0 3e-06
                        CHANNELS 3 Zrotation Yrotation Xrotation
                        JOINT LeftHandThumbEnd
                        {
                          OFFSET 3.180793 4e-06 -4e-06
                          CHANNELS 3 Zrotation Yrotation Xrotation
                        }
                      }
                    }
                  }
                  JOINT LeftHandIndex1
                  {
                    OFFSET 3.247786 2.352677 0.137192
                    CHANNELS 3 Zrotation Yrotation Xrotation
                    JOINT LeftHandIndex2
                    {
                      OFFSET 6.367095 1e-06 0.0
                      CHANNELS 3 Zrotation Yrotation Xrotation
                      JOINT LeftHandIndex3
                      {
                        OFFSET 3.662364 0.0 0.0
                        CHANNELS 3 Zrotation Yrotation Xrotation
                        JOINT LeftHandIndex4
                        {
                          OFFSET 2.329242 4e-06 -4e-06
                          CHANNELS 3 Zrotation Yrotation Xrotation
                          JOINT LeftHandIndexEnd
                          {
                            OFFSET 2.767823 1e-06 0.0
                            CHANNELS 3 Zrotation Yrotation Xrotation
                          }
                        }
                      }
                    }
                  }
                  JOINT LeftHandMiddle1
                  {
                    OFFSET 3.163612 0.945023 -0.406112
                    CHANNELS 3 Zrotation Yrotation Xrotation
                    JOINT LeftHandMiddle2
                    {
                      OFFSET 6.276789 3e-06 0.0
                      CHANNELS 3 Zrotation Yrotation Xrotation
                      JOINT LeftHandMiddle3
                      {
                        OFFSET 4.35652 -1e-06 4e-06
                        CHANNELS 3 Zrotation Yrotation Xrotation
                        JOINT LeftHandMiddle4
                        {
                          OFFSET 2.996877 0.0 8e-06
                          CHANNELS 3 Zrotation Yrotation Xrotation
                          JOINT LeftHandMiddleEnd
                          {
                            OFFSET 2.323256 3e-06 -4e-06
                            CHANNELS 3 Zrotation Yrotation Xrotation
                          }
                        }
                      }
                    }
                  }
                  JOINT LeftHandRing1
                  {
                    OFFSET 2.882606 -0.309162 0.107445
                    CHANNELS 3 Zrotation Yrotation Xrotation
                    JOINT LeftHandRing2
                    {
                      OFFSET 6.033198 0.0 4e-06
                      CHANNELS 3 Zrotation Yrotation Xrotation
                      JOINT LeftHandRing3
                      {
                        OFFSET 4.350578 3e-06 0.0
                        CHANNELS 3 Zrotation Yrotation Xrotation
                        JOINT LeftHandRing4
                        {
                          OFFSET 2.651321 2e-06 -7e-06
                          CHANNELS 3 Zrotation Yrotation Xrotation
                          JOINT LeftHandRingEnd
                          {
                            OFFSET 1.937663 1e-06 -4e-06
                            CHANNELS 3 Zrotation Yrotation Xrotation
                          }
                        }
                      }
                    }
                  }
                  JOINT LeftHandPinky1
                  {
                    OFFSET 2.865315 -1.525436 0.575687
                    CHANNELS 3 Zrotation Yrotation Xrotation
                    JOINT LeftHandPinky2
                    {
                      OFFSET 5.54936 1e-06 -8e-06
                      CHANNELS 3 Zrotation Yrotation Xrotation
                      JOINT LeftHandPinky3
                      {
                        OFFSET 3.070974 0.0 -4e-06
                        CHANNELS 3 Zrotation Yrotation Xrotation
                        JOINT LeftHandPinky4
                        {
                          OFFSET 1.549672 1e-06 0.0
                          CHANNELS 3 Zrotation Yrotation Xrotation
                          JOINT LeftHandPinkyEnd
                          {
                            OFFSET 1.952123 0.0 0.0
                            CHANNELS 3 Zrotation Yrotation Xrotation
                          }
                        }
                      }
                    }
                  }
                }
              }
            }
          }
          JOINT RightShoulder
          {
            OFFSET 23.161716 5.296122 -1.380114
            CHANNELS 3 Zrotation Yrotation Xrotation
            JOINT RightArm
            {
              OFFSET -16.027195 -2e-06 1.1e-05
              CHANNELS 3 Zrotation Yrotation Xrotation
              JOINT RightForeArm
              {
                OFFSET -28.736639 4e-06 2e-06
                CHANNELS 3 Zrotation Yrotation Xrotation
                JOINT RightHand
                {
                  OFFSET -27.133619 6e-06 0.0
                  CHANNELS 3 Zrotation Yrotation Xrotation
                  JOINT RightHandThumb1
                  {
                    OFFSET -2.274328 -3.351035 -0.83067
                    CHANNELS 3 Zrotation Yrotation Xrotation
                    JOINT RightHandThumb2
                    {
                      OFFSET -4.703594 -3e-06 2e-06
                      CHANNELS 3 Zrotation Yrotation Xrotation
                      JOINT RightHandThumb3
                      {
                        OFFSET -2.794935 -4e-06 -3e-06
                        CHANNELS 3 Zrotation Yrotation Xrotation
                        JOINT RightHandThumbEnd
                        {
                          OFFSET -3.183852 4e-06 1e-06
                          CHANNELS 3 Zrotation Yrotation Xrotation
                        }
                      }
                    }
                  }
                  JOINT RightHandIndex1
                  {
                    OFFSET -3.253496 -2.33755 -0.127667
                    CHANNELS 3 Zrotation Yrotation Xrotation
                    JOINT RightHandIndex2
                    {
                      OFFSET -6.344434 0.0 0.0
                      CHANNELS 3 Zrotation Yrotation Xrotation
                      JOINT RightHandIndex3
                      {
                        OFFSET -3.654871 0.0 -8e-06
                        CHANNELS 3 Zrotation Yrotation Xrotation
                        JOINT RightHandIndex4
                        {
                          OFFSET -2.327586 -1e-06 0.0
                          CHANNELS 3 Zrotation Yrotation Xrotation
                          JOINT RightHandIndexEnd
                          {
                            OFFSET -2.770001 3e-06 8e-06
                            CHANNELS 3 Zrotation Yrotation Xrotation
                          }
                        }
                      }
                    }
                  }
                  JOINT RightHandMiddle1
                  {
                    OFFSET -3.168223 -0.944764 0.411762
                    CHANNELS 3 Zrotation Yrotation Xrotation
                    JOINT RightHandMiddle2
                    {
                      OFFSET -6.266691 -1e-06 -4e-06
                      CHANNELS 3 Zrotation Yrotation Xrotation
                      JOINT RightHandMiddle3
                      {
                        OFFSET -4.348901 0.0 0.0
                        CHANNELS 3 Zrotation Yrotation Xrotation
                        JOINT RightHandMiddle4
                        {
                          OFFSET -3.00024 2e-06 -4e-06
                          CHANNELS 3 Zrotation Yrotation Xrotation
                          JOINT RightHandMiddleEnd
                          {
                            OFFSET -2.321477 -4e-06 -4e-06
                            CHANNELS 3 Zrotation Yrotation Xrotation
                          }
                        }
                      }
                    }
                  }
                  JOINT RightHandRing1
                  {
                    OFFSET -2.885654 0.293261 -0.119232
                    CHANNELS 3 Zrotation Yrotation Xrotation
                    JOINT RightHandRing2
                    {
                      OFFSET -6.032835 -1e-06 -4e-06
                      CHANNELS 3 Zrotation Yrotation Xrotation
                      JOINT RightHandRing3
                      {
                        OFFSET -4.33881 0.0 -4e-06
                        CHANNELS 3 Zrotation Yrotation Xrotation
                        JOINT RightHandRing4
                        {
                          OFFSET -2.654903 -4e-06 -4e-06
                          CHANNELS 3 Zrotation Yrotation Xrotation
                          JOINT RightHandRingEnd
                          {
                            OFFSET -1.935122 0.0 4e-06
                            CHANNELS 3 Zrotation Yrotation Xrotation
                          }
                        }
                      }
                    }
                  }
                  JOINT RightHandPinky1
                  {
                    OFFSET -2.866241 1.503904 -0.60527
                    CHANNELS 3 Zrotation Yrotation Xrotation
                    JOINT RightHandPinky2
                    {
                      OFFSET -5.553177 -2e-06 0.0
                      CHANNELS 3 Zrotation Yrotation Xrotation
                      JOINT RightHandPinky3
                      {
                        OFFSET -3.062664 -1e-06 -4e-06
                        CHANNELS 3 Zrotation Yrotation Xrotation
                        JOINT RightHandPinky4
                        {
                          OFFSET -1.546529 2e-06 4e-06
                          CHANNELS 3 Zrotation Yrotation Xrotation
                          JOINT RightHandPinkyEnd
                          {
                            OFFSET -1.952341 0.0 -4e-06
                            CHANNELS 3 Zrotation Yrotation Xrotation
                          }
                        }
                      }
                    }
                  }
                }
              }
            }
          }
        }
      }
    }
    JOINT LeftLeg
    {
      OFFSET -8.443107 2.567604 10.043214
      CHANNELS 3 Zrotation Yrotation Xrotation
      JOINT LeftShin
      {
        OFFSET 43.229198 1e-06 -1e-06
        CHANNELS 3 Zrotation Yrotation Xrotation
        JOINT LeftFoot
        {
          OFFSET 42.298611 1e-06 1e-06
          CHANNELS 3 Zrotation Yrotation Xrotation
          JOINT LeftToeBase
          {
            OFFSET 14.165858 1e-06 0.0
            CHANNELS 3 Zrotation Yrotation Xrotation
            JOINT LeftToeEnd
            {
              OFFSET 6.7141 -0.234461 0.0
              CHANNELS 3 Zrotation Yrotation Xrotation
            }
          }
        }
      }
    }
    JOINT RightLeg
    {
      OFFSET -8.303923 2.592729 -10.047278
      CHANNELS 3 Zrotation Yrotation Xrotation
      JOINT RightShin
      {
        OFFSET -43.369682 0.0 1e-06
        CHANNELS 3 Zrotation Yrotation Xrotation
        JOINT RightFoot
        {
          OFFSET -42.260784 4e-06 2e-06
          CHANNELS 3 Zrotation Yrotation Xrotation
          JOINT RightToeBase
          {
            OFFSET -14.222245 -2e-06 -1e-06
            CHANNELS 3 Zrotation Yrotation Xrotation
            JOINT RightToeEnd
            {
              OFFSET -6.660062 0.232574 -2e-06
              CHANNELS 3 Zrotation Yrotation Xrotation
            }
          }
        }
      }
    }
  }
}
MOTION
Frames: 4
Frame Time: 0.03333333333333333
0.0 0.0 0.0 0.0 -0.0 0.0 0.405285 100.051559 -0.440561 88.140152 -9.559133 98.980347 -2.714504 0.427767 0.455819 -11.616831 0.27548 2.058567 16.487934 1.536357 0.353479 0.281625 3.433083 1.741004 -1.810528 -1.804016 -14.852177 -40.183262 -9.248074 -18.89052 7e-06 0.0 1e-06 0.012856 0.03557 0.038036 0.081616 -0.041887 -0.053658 0.099579 0.087742 0.085566 -118.275658 -72.417236 128.888367 21.2936 -37.855106 38.744282 42.425217 -0.812539 0.125375 -0.570486 11.374435 -16.396757 17.636641 -26.322737 52.411201 -19.466665 -14.3956 29.410393 -1e-06 -8.774823 -1e-06 15.985223 -18.466085 6.288293 -0.609776 -1.795655 -3.88933 -4.807088 -11.046813 -2.93785 8e-06 -20.976021 -1e-06 -5.019968 -25.033562 -4.031879 5e-06 1e-06 -0.0 -10.634535 -5.68697 -3.565591 10.573279 -17.922951 -3.113901 4e-06 -13.82121 3e-06 -0.501773 -31.181505 -4.027017 -11.757474 -60.245983 7.523869 -13.982714 -7.150198 -2.875043 13.772731 -8.401497 -3.218242 0.347738 -34.211555 0.771655 -0.963029 -17.733372 2.621026 -1e-06 2e-06 -2e-06 -17.346422 -20.095217 -4.201784 21.757561 -1.638379 3.86643 2e-06 -6.338824 0.0 -1.697587 -22.591745 -6.194006 -1e-06 -3e-06 -3e-06 -63.746048 -82.655914 -105.367355 39.067421 28.342073 -12.688808 97.164574 3.459506 2.23958 18.526731 61.671242 44.463806 22.182117 -20.37591 49.933342 -16.701817 -16.743536 28.476542 -3e-06 -12.690605 2e-06 16.041239 -16.891478 2.116357 -0.105919 -1.513855 -4.275885 -5.039042 -5.612871 -2.953555 5e-06 -11.020528 -3e-06 -6.1113 -15.895338 -3.84047 0.0 1e-06 0.0 -10.283373 -5.680289 -4.341839 11.028296 -11.302405 -2.372633 -1.384269 -14.238585 -6.32012 -0.625442 -26.924198 -3.827601 -5.319737 -49.779667 -3.145729 -13.708527 -7.363479 -3.72094 18.14115 -14.052739 -3.242674 5e-06 -18.787271 0.0 -0.429715 -8.456045 2.555509 -0.0 -1e-06 -1e-06 -15.923538 -20.094486 -5.473586 30.419218 -7.190823 1.735926 1e-06 -8.162929 -1e-06 -1.861906 -22.861475 -6.167945 1e-06 -2e-06 0.0 168.082016 -7.450812 -7.146914 13.289935 -0.096664 0.259463 -79.558243 1.506677 -8.146605 -2.648367 1.523146 2.167091 -0.999998 1e-06 0.0 -11.081032 -6.227025 -12.460355 13.029209 0.020922 0.176676 -78.072456 -8.800857 -9.985992 -2.475146 0.558312 1.660156 -1.000002 -0.0 0.0 
0.0 0.0 0.0 0.0 -0.0 0.0 0.396487 100.078247 -0.467931 88.129974 -9.643312 99.027748 -2.671437 0.502254 0.450301 -11.650977 0.335803 2.135621 16.567892 1.487822 0.358157 0.350701 3.309932 1.775498 -1.832565 -1.841962 -14.793228 -40.597622 -9.336679 -18.976223 6e-06 -0.0 -1e-06 -0.015025 0.046549 0.056567 0.090967 -0.034239 -0.030795 0.122621 0.101141 0.099988 -118.123695 -72.400993 128.835358 22.244024 -37.855541 38.491005 42.760265 -0.690067 0.104641 -0.608263 11.361359 -16.060207 17.636631 -26.322733 52.411201 -19.466665 -14.3956 29.410395 0.0 -8.774822 -2e-06 15.915567 -18.416637 6.28731 -0.609775 -1.795653 -3.889327 -4.80709 -11.046813 -2.93785 5e-06 -20.976021 1e-06 -5.019972 -25.03356 -4.031879 6e-06 -0.0 1e-06 -10.634537 -5.68697 -3.565587 10.573277 -17.922951 -3.113901 1e-06 -13.821212 3e-06 -0.50178 -31.181505 -4.027016 -11.691398 -60.128853 7.525836 -13.982714 -7.150196 -2.875042 13.772729 -8.401493 -3.218242 0.347732 -34.211555 0.771656 -0.96303 -17.733372 2.62102 0.0 1e-06 -1e-06 -17.346422 -20.095221 -4.20178 21.757566 -1.638375 3.866431 1e-06 -6.338825 0.0 -1.69759 -22.591753 -6.194007 -1e-06 -3e-06 -1e-06 -67.848717 -82.650467 -100.988205 39.697666 29.336954 -11.448329 98.734909 3.020804 2.096004 26.923716 62.423038 55.417389 22.182117 -20.375898 49.933334 -16.701811 -16.74353 28.476532 -2e-06 -12.690601 0.0 16.013783 -16.908463 2.078068 -0.105919 -1.513855 -4.275882 -5.039042 -5.612874 -2.953558 6e-06 -11.020527 -3e-06 -6.111297 -15.895338 -3.840473 -1e-06 -1e-06 0.0 -10.283373 -5.680292 -4.341839 11.028296 -11.302407 -2.372635 -1.384269 -14.238583 -6.320125 -0.62544 -26.924194 -3.827604 -5.453374 -49.755672 -3.085281 -13.708524 -7.363479 -3.72094 18.14115 -14.052739 -3.242676 7e-06 -18.787271 -4e-06 -0.429712 -8.456043 2.555504 -0.0 -0.0 -1e-06 -15.923538 -20.094494 -5.473584 30.419218 -7.190827 1.735931 2e-06 -8.162926 -0.0 -1.861901 -22.861473 -6.167944 1e-06 -3e-06 -0.0 168.117676 -7.399135 -7.138355 12.96783 -0.11194 0.275419 -79.374268 1.381367 -8.17963 -2.648354 1.538437 2.166697 -1.0 0.0 0.0 -11.050382 -6.211908 -12.472384 12.746439 0.006769 0.170786 -77.85556 -8.760967 -9.990017 -2.464402 0.556461 1.650832 -1.000001 -0.0 0.0 
0.0 0.0 0.0 0.0 -0.0 0.0 0.389432 100.096512 -0.462154 88.138527 -9.616458 99.154106 -2.641464 0.544804 0.496506 -11.682543 0.406553 2.283973 16.628475 1.434766 0.34324 0.546412 3.13209 1.904995 -1.8242 -1.821445 -14.949172 -40.759945 -9.357277 -19.005129 9e-06 -0.0 1e-06 -0.028314 0.040506 0.053365 0.076699 -0.063493 -0.039588 0.125257 0.116602 0.100787 -118.275505 -72.239342 129.020157 22.872738 -37.590336 38.269184 42.989735 -0.374269 0.124798 -0.761492 11.83922 -16.402039 17.636631 -26.322733 52.411194 -19.466665 -14.395594 29.410393 -2e-06 -8.774821 -1e-06 15.664825 -18.368589 6.392009 -0.609776 -1.795653 -3.889328 -4.807088 -11.046813 -2.937851 6e-06 -20.976021 -1e-06 -5.019969 -25.03356 -4.03188 6e-06 0.0 1e-06 -10.634535 -5.686971 -3.565587 10.573277 -17.922956 -3.113905 4e-06 -13.821213 1e-06 -0.501772 -31.181511 -4.027019 -11.730909 -60.004696 7.632851 -13.982714 -7.150198 -2.87504 13.772731 -8.401497 -3.218243 0.347739 -34.211559 0.771652 -0.963025 -17.733376 2.621019 1e-06 0.0 -0.0 -17.346418 -20.095221 -4.201784 21.757559 -1.638377 3.866429 2e-06 -6.338825 1e-06 -1.697586 -22.591749 -6.194007 -1e-06 -4e-06 -2e-06 -71.921082 -82.612839 -96.750755 40.020634 29.972954 -9.761256 96.451889 2.139845 1.963334 27.764696 63.169735 57.938213 22.182121 -20.3759 49.933319 -16.701818 -16.743538 28.47653 -5e-06 -12.690603 0.0 16.560951 -16.545185 2.11682 -0.105919 -1.513855 -4.275884 -5.039041 -5.612873 -2.953554 7e-06 -11.020525 -2e-06 -6.111297 -15.895334 -3.840473 -0.0 -1e-06 1e-06 -10.283371 -5.680288 -4.341839 11.028297 -11.302409 -2.372634 -1.384268 -14.238583 -6.32012 -0.625436 -26.924194 -3.827599 -5.656538 -49.987492 -2.72217 -13.708527 -7.363475 -3.720939 18.141157 -14.052744 -3.242678 9e-06 -18.787273 -2e-06 -0.429711 -8.456043 2.555506 -1e-06 -1e-06 -2e-06 -15.923536 -20.094484 -5.473583 30.419218 -7.190827 1.735924 3e-06 -8.162927 -2e-06 -1.861901 -22.861473 -6.167941 1e-06 -2e-06 -1e-06 168.283646 -7.349516 -7.025014 12.646397 -0.0887 0.285275 -79.244629 1.261758 -8.223956 -2.538622 1.520959 2.166857 -1.0 2e-06 0.0 -10.857707 -6.20309 -12.491934 12.500249 -0.006447 0.179069 -77.768211 -8.790322 -10.065119 -2.424856 0.553012 1.644235 -1.000002 -0.0 -0.0 
0.0 0.0 0.0 0.0 -0.0 0.0 0.391531 100.088623 -0.439137 88.145714 -9.551308 99.382111 -2.643781 0.56751 0.567672 -11.66587 0.435266 2.429631 16.621584 1.424706 0.433398 0.71187 2.919579 2.034253 -1.832007 -1.689962 -15.161934 -40.536594 -9.542108 -19.13656 6e-06 1e-06 0.0 -0.001206 0.029631 0.052071 0.089311 -0.093833 -0.04646 0.146306 0.124945 0.105928 -118.644966 -72.010582 129.41391 23.214798 -37.246334 37.69455 43.085205 -0.160153 0.178274 -0.85108 12.914846 -17.068705 17.636629 -26.322729 52.411182 -19.46665 -14.395596 29.410378 0.0 -8.774819 -2e-06 15.377194 -18.383484 6.485165 -0.609777 -1.795653 -3.889327 -4.807087 -11.046807 -2.937849 4e-06 -20.976011 1e-06 -5.019971 -25.033546 -4.031876 6e-06 -0.0 1e-06 -10.634533 -5.686967 -3.565589 10.573272 -17.922947 -3.113899 1e-06 -13.821205 4e-06 -0.501781 -31.181498 -4.027008 -11.698367 -59.778118 7.526494 -13.982712 -7.150195 -2.875041 13.772727 -8.401489 -3.21824 0.347731 -34.21154 0.77166 -0.963031 -17.733364 2.621019 0.0 -2e-06 0.0 -17.346416 -20.095209 -4.201781 21.757557 -1.638375 3.866428 0.0 -6.338822 1e-06 -1.697591 -22.59174 -6.194004 -1e-06 -3e-06 -1e-06 -75.114235 -82.660004 -93.574989 40.446156 30.777939 -5.806222 91.431999 1.726195 2.360499 21.210829 62.683487 52.390514 22.182106 -20.375887 49.9333 -16.701807 -16.743523 28.476519 -2e-06 -12.690597 -0.0 17.416861 -16.057362 2.135232 -0.105917 -1.513858 -4.275877 -5.03904 -5.612869 -2.953557 3e-06 -11.02052 -1e-06 -6.111295 -15.895328 -3.840469 -1e-06 2e-06 1e-06 -10.283364 -5.680289 -4.341837 11.028287 -11.302401 -2.372634 -1.384268 -14.238575 -6.320117 -0.625435 -26.924181 -3.827603 -5.84177 -50.768047 -2.3398 -13.708517 -7.363475 -3.720937 18.141146 -14.052736 -3.242676 6e-06 -18.787266 -2e-06 -0.429711 -8.456039 2.555504 -0.0 -0.0 -1e-06 -15.92353 -20.094481 -5.473584 30.419205 -7.19082 1.735929 3e-06 -8.162924 -2e-06 -1.861902 -22.861464 -6.167943 2e-06 -2e-06 -2e-06 168.326721 -7.320399 -6.78393 12.675401 -0.05004 0.255727 -79.189598 1.173313 -8.269493 -2.402164 1.530317 2.175157 -1.0 1e-06 -0.0 -10.737068 -6.254212 -12.607247 12.585544 -0.00833 0.207497 -77.890884 -8.827568 -10.056778 -2.381794 0.548772 1.637398 -1.000001 0.0 0.0 
